<svg width="35" height="35" viewBox="0 0 35 35" fill="none" xmlns="http://www.w3.org/2000/svg">
<circle cx="17.5" cy="17.5" r="17.5" fill="black"/>
<path d="M17.4974 14.412C15.7531 14.412 14.3295 15.8535 14.3295 17.62C14.3295 19.3865 15.7531 20.828 17.4974 20.828C19.2418 20.828 20.6654 19.3865 20.6654 17.62C20.6654 15.8535 19.2418 14.412 17.4974 14.412ZM26.9989 17.62C26.9989 16.2915 27.0108 14.9751 26.9371 13.6491C26.8635 12.1088 26.5165 10.7419 25.4043 9.61556C24.2897 8.48685 22.9421 8.13789 21.4211 8.06329C20.1093 7.98868 18.8093 8.00072 17.4998 8.00072C16.188 8.00072 14.888 7.98868 13.5785 8.06329C12.0575 8.13789 10.7076 8.48926 9.59538 9.61556C8.48077 10.7443 8.13617 12.1088 8.0625 13.6491C7.98882 14.9775 8.00071 16.2939 8.00071 17.62C8.00071 18.9461 7.98882 20.2649 8.0625 21.5909C8.13617 23.1312 8.48315 24.4981 9.59538 25.6244C10.71 26.7531 12.0575 27.1021 13.5785 27.1767C14.8904 27.2513 16.1903 27.2393 17.4998 27.2393C18.8117 27.2393 20.1117 27.2513 21.4211 27.1767C22.9421 27.1021 24.292 26.7507 25.4043 25.6244C26.5189 24.4957 26.8635 23.1312 26.9371 21.5909C27.0132 20.2649 26.9989 18.9485 26.9989 17.62ZM17.4974 22.556C14.8 22.556 12.6231 20.3515 12.6231 17.62C12.6231 14.8885 14.8 12.684 17.4974 12.684C20.1948 12.684 22.3718 14.8885 22.3718 17.62C22.3718 20.3515 20.1948 22.556 17.4974 22.556ZM22.5714 13.6346C21.9416 13.6346 21.433 13.1196 21.433 12.4819C21.433 11.8441 21.9416 11.3291 22.5714 11.3291C23.2012 11.3291 23.7098 11.8441 23.7098 12.4819C23.71 12.6333 23.6806 12.7833 23.6235 12.9232C23.5664 13.0632 23.4825 13.1903 23.3768 13.2974C23.271 13.4045 23.1455 13.4894 23.0073 13.5473C22.8691 13.6051 22.721 13.6348 22.5714 13.6346Z" fill="white"/>
</svg>
