<svg width="35" height="35" viewBox="0 0 35 35" fill="none" xmlns="http://www.w3.org/2000/svg">
<circle cx="17.5" cy="17.5" r="17.5" fill="#44BB77"/>
<path d="M25.7681 10.7438L23.3996 8.47021C23.2325 8.30897 23.034 8.18104 22.8153 8.09376C22.5966 8.00649 22.3621 7.96158 22.1253 7.96164C21.6427 7.96164 21.189 8.14327 20.8487 8.47021L18.3001 10.9191C18.1322 11.0796 17.9991 11.2704 17.9083 11.4805C17.8174 11.6906 17.7707 11.9159 17.7707 12.1435C17.7707 12.6072 17.9598 13.0431 18.3001 13.37L20.1637 15.1607C19.7275 16.0846 19.121 16.9251 18.3734 17.6416C17.6278 18.3616 16.7531 18.9465 15.7914 19.3682L13.9277 17.5775C13.7606 17.4163 13.5621 17.2883 13.3434 17.2011C13.1247 17.1138 12.8902 17.0689 12.6534 17.0689C12.1708 17.0689 11.7171 17.2506 11.3768 17.5775L8.82594 20.0242C8.65792 20.185 8.52466 20.3762 8.43382 20.5867C8.34298 20.7972 8.29636 21.0229 8.29663 21.2508C8.29663 21.7145 8.48567 22.1504 8.82594 22.4773L11.19 24.7488C11.7327 25.2723 12.4821 25.5693 13.2516 25.5693C13.414 25.5693 13.5697 25.5565 13.7231 25.5309C16.721 25.0565 19.6945 23.5244 22.0941 21.2208C24.4916 18.9194 26.084 16.0646 26.5843 13.1756C26.7356 12.2931 26.4309 11.3849 25.7681 10.7438Z" fill="white"/>
</svg>
