<svg width="35" height="35" viewBox="0 0 35 35" fill="none" xmlns="http://www.w3.org/2000/svg">
<circle cx="17.5" cy="17.5" r="17.5" fill="#FF0000"/>
<g clip-path="url(#clip0_59_57)">
<path d="M26.5801 13.1836C26.4712 12.7616 26.2586 12.3768 25.9636 12.0676C25.6685 11.7584 25.3014 11.5356 24.8986 11.4214C23.4242 11 17.4901 11 17.4901 11C17.4901 11 11.5557 11.0128 10.0813 11.4342C9.67856 11.5484 9.3114 11.7712 9.01638 12.0804C8.72136 12.3896 8.50878 12.7744 8.39981 13.1964C7.95383 15.9418 7.78082 20.1252 8.41206 22.7608C8.52104 23.1828 8.73362 23.5676 9.02864 23.8768C9.32366 24.186 9.69082 24.4088 10.0936 24.523C11.568 24.9444 17.5022 24.9444 17.5022 24.9444C17.5022 24.9444 23.4364 24.9444 24.9107 24.523C25.3135 24.4088 25.6807 24.186 25.9757 23.8768C26.2707 23.5676 26.4833 23.1828 26.5923 22.7608C27.0627 20.0115 27.2077 15.8308 26.5801 13.1837V13.1836Z" fill="white"/>
<path d="M15.6016 20.9602L20.5243 17.9722L15.6016 14.9841V20.9602Z" fill="#FF0000"/>
</g>
<defs>
<clipPath id="clip0_59_57">
<rect width="19" height="14" fill="white" transform="translate(8 11)"/>
</clipPath>
</defs>
</svg>
